<?xml version="1.0" encoding="utf-8"?>
<!-- Generator: Adobe Illustrator 26.0.3, SVG Export Plug-In . SVG Version: 6.00 Build 0)  -->
<svg version="1.1" id="Layer_1" xmlns="http://www.w3.org/2000/svg" xmlns:xlink="http://www.w3.org/1999/xlink" x="0px" y="0px"
	 viewBox="0 0 1366 768" style="enable-background:new 0 0 1366 768;" xml:space="preserve">
<style type="text/css">
	.st0{fill:#2CB674;}
</style>
<g>
	<path class="st0" d="M218.9,573.8C100.3,572.9,5.3,476.4,6.4,358C7.5,240.4,104,145.6,221.8,146.6c117.7,1,212.7,97.4,211.8,215
		C432.7,479.4,336.3,574.7,218.9,573.8z M227.6,260.5c-0.1,0-0.3,0-0.4,0c0,9-0.3,18.1,0.2,27.1c0.2,2.9,2,6.5,4.2,8.2
		C249.2,309,267,322,285,334.5c2.4,1.7,6.8,2.3,9.7,1.4c17.1-5.1,34-10.6,50.9-16.4c2.6-0.9,5.5-3.9,6.5-6.5
		c5.4-15.3,10.2-30.9,15.5-46.3c1.6-4.6,0.9-8.2-2.1-12.1c-19.7-26.1-44.3-45.9-74.2-59.4c-8.4-3.8-15.1-4.7-22.3,2.3
		c-4.7,4.7-10.8,7.9-16.2,12c-8.4,6.3-20,11.2-24.2,19.7C224.4,237.7,227.6,249.9,227.6,260.5z M212.2,260.5c0.2,0,0.4,0,0.5,0
		c0-9,0.3-18.1-0.2-27.1c-0.2-2.9-1.9-6.6-4.1-8.3c-14-10.6-28.2-21-42.7-30.9c-2.6-1.8-7.5-2.4-10.4-1.3
		c-33.1,12.8-60.4,33.5-80.9,62.6c-2,2.8-2.6,7.8-1.7,11.1c4.6,15.6,9.7,31,15.2,46.4c0.9,2.6,3.8,5.6,6.5,6.5
		c16.8,5.8,33.8,11.4,50.9,16.4c3.1,0.9,7.6,0,10.3-1.8c10.8-7.1,21.1-14.9,31.5-22.6c8.5-6.3,20-11.2,24.2-19.7
		C215.5,283.3,212.2,271.1,212.2,260.5z M107.3,476.9c5.4,0,10.9-0.3,16.3,0.1c6.1,0.5,10-1.7,13.5-6.8c9.5-13.8,19.8-27.1,29.3-41
		c1.8-2.7,2.5-7.3,1.6-10.4c-6.2-20.5-12.8-40.9-19.9-61.2c-1.1-3.3-4.7-6.8-7.9-8c-16.5-5.9-33.3-11.3-50.1-16.3
		c-2.9-0.9-7.2-0.1-9.7,1.7c-12,8.1-23.7,16.6-35.1,25.6c-2.5,1.9-4.3,6.4-4.2,9.6c1.1,32.1,11.1,61.3,28.6,88.1
		c12.3,18.8,12.5,18.6,34.5,18.6C105.2,476.9,106.3,476.9,107.3,476.9z M329.1,476.9c9.3,0,15.5,0.5,21.7-0.2
		c3.2-0.4,7.2-1.9,9.1-4.3c24.1-30.2,37.7-64.5,39.1-103.3c0.1-2.8-1.6-6.7-3.8-8.3c-11.9-9.2-24-17.9-36.4-26.4
		c-2.1-1.5-5.9-2-8.5-1.2c-17,5.2-34,10.7-50.8,16.6c-3.1,1.1-6.5,4.4-7.6,7.4c-7.1,20.5-13.7,41.2-20,61.9
		c-0.9,2.9-0.3,7.2,1.4,9.8c6.5,9.9,14.6,18.9,20.6,29.1C302.6,473.2,313.8,481.8,329.1,476.9z M220.3,432.8
		c-10.9,0-21.7-0.4-32.6,0.2c-3.3,0.2-7.5,2.1-9.5,4.7c-10.9,14.1-21.3,28.6-31.5,43.2c-1.6,2.3-2.2,6.4-1.5,9.1
		c3.2,11.2,6.7,22.2,10.8,33.1c1.1,2.9,4.1,6.1,7,7c37.7,13,75.5,13.1,113.2,0.2c3.1-1.1,6.4-4.4,7.6-7.4
		c4.1-10.6,7.6-21.4,10.6-32.4c0.8-3,0.3-7.3-1.4-9.8c-10-14.5-20.3-28.7-31-42.6c-2.1-2.7-6.5-4.9-10-5.1
		C241.5,432.4,230.9,432.8,220.3,432.8z"/>
	<g>
		<path class="st0" d="M650.7,407.7c-5.8,0-10.5-4.8-10.5-10.6c0.1-5.8,4.8-10.4,10.6-10.4c5.8,0,10.5,4.8,10.4,10.6
			C661.2,403.1,656.5,407.8,650.7,407.7z M651.2,392.3C651.2,392.3,651.2,392.3,651.2,392.3c0,0.4,0,0.9,0,1.3
			c0,0.1,0.1,0.3,0.2,0.4c0.9,0.6,1.7,1.3,2.6,1.9c0.1,0.1,0.3,0.1,0.5,0.1c0.8-0.3,1.7-0.5,2.5-0.8c0.1,0,0.3-0.2,0.3-0.3
			c0.3-0.8,0.5-1.5,0.8-2.3c0.1-0.2,0-0.4-0.1-0.6c-1-1.3-2.2-2.3-3.7-2.9c-0.4-0.2-0.7-0.2-1.1,0.1c-0.2,0.2-0.5,0.4-0.8,0.6
			c-0.4,0.3-1,0.6-1.2,1C651,391.2,651.2,391.8,651.2,392.3z M650.4,392.3C650.4,392.3,650.4,392.3,650.4,392.3c0-0.4,0-0.9,0-1.3
			c0-0.1-0.1-0.3-0.2-0.4c-0.7-0.5-1.4-1-2.1-1.5c-0.1-0.1-0.4-0.1-0.5-0.1c-1.6,0.6-3,1.6-4,3.1c-0.1,0.1-0.1,0.4-0.1,0.5
			c0.2,0.8,0.5,1.5,0.7,2.3c0,0.1,0.2,0.3,0.3,0.3c0.8,0.3,1.7,0.6,2.5,0.8c0.2,0,0.4,0,0.5-0.1c0.5-0.4,1-0.7,1.5-1.1
			c0.4-0.3,1-0.6,1.2-1C650.6,393.4,650.4,392.8,650.4,392.3z M645.2,403c0.3,0,0.5,0,0.8,0c0.3,0,0.5-0.1,0.7-0.3
			c0.5-0.7,1-1.3,1.4-2c0.1-0.1,0.1-0.4,0.1-0.5c-0.3-1-0.6-2-1-3c-0.1-0.2-0.2-0.3-0.4-0.4c-0.8-0.3-1.6-0.6-2.5-0.8
			c-0.1,0-0.4,0-0.5,0.1c-0.6,0.4-1.2,0.8-1.7,1.3c-0.1,0.1-0.2,0.3-0.2,0.5c0.1,1.6,0.5,3,1.4,4.3c0.6,0.9,0.6,0.9,1.7,0.9
			C645.1,403,645.2,403,645.2,403z M656.2,403c0.5,0,0.8,0,1.1,0c0.2,0,0.4-0.1,0.4-0.2c1.2-1.5,1.9-3.2,1.9-5.1
			c0-0.1-0.1-0.3-0.2-0.4c-0.6-0.5-1.2-0.9-1.8-1.3c-0.1-0.1-0.3-0.1-0.4-0.1c-0.8,0.3-1.7,0.5-2.5,0.8c-0.2,0.1-0.3,0.2-0.4,0.4
			c-0.3,1-0.7,2-1,3c0,0.1,0,0.4,0.1,0.5c0.3,0.5,0.7,0.9,1,1.4C654.9,402.8,655.4,403.2,656.2,403z M650.8,400.8
			c-0.5,0-1.1,0-1.6,0c-0.2,0-0.4,0.1-0.5,0.2c-0.5,0.7-1,1.4-1.5,2.1c-0.1,0.1-0.1,0.3-0.1,0.4c0.2,0.5,0.3,1.1,0.5,1.6
			c0.1,0.1,0.2,0.3,0.3,0.3c1.9,0.6,3.7,0.6,5.6,0c0.2-0.1,0.3-0.2,0.4-0.4c0.2-0.5,0.4-1.1,0.5-1.6c0-0.1,0-0.4-0.1-0.5
			c-0.5-0.7-1-1.4-1.5-2.1c-0.1-0.1-0.3-0.2-0.5-0.3C651.8,400.8,651.3,400.8,650.8,400.8z"/>
		<path class="st0" d="M701.2,403c-5.8,0-10.5-4.8-10.5-10.6c0.1-5.8,4.8-10.4,10.6-10.4c5.8,0,10.5,4.8,10.4,10.6
			C711.7,398.4,707,403.1,701.2,403z M701.6,387.6C701.6,387.6,701.6,387.6,701.6,387.6c0,0.4,0,0.9,0,1.3c0,0.1,0.1,0.3,0.2,0.4
			c0.9,0.6,1.7,1.3,2.6,1.9c0.1,0.1,0.3,0.1,0.5,0.1c0.8-0.3,1.7-0.5,2.5-0.8c0.1,0,0.3-0.2,0.3-0.3c0.3-0.8,0.5-1.5,0.8-2.3
			c0.1-0.2,0-0.4-0.1-0.6c-1-1.3-2.2-2.3-3.7-2.9c-0.4-0.2-0.7-0.2-1.1,0.1c-0.2,0.2-0.5,0.4-0.8,0.6c-0.4,0.3-1,0.6-1.2,1
			C701.5,386.5,701.6,387.1,701.6,387.6z M700.9,387.6C700.9,387.6,700.9,387.6,700.9,387.6c0-0.4,0-0.9,0-1.3
			c0-0.1-0.1-0.3-0.2-0.4c-0.7-0.5-1.4-1-2.1-1.5c-0.1-0.1-0.4-0.1-0.5-0.1c-1.6,0.6-3,1.6-4,3.1c-0.1,0.1-0.1,0.4-0.1,0.5
			c0.2,0.8,0.5,1.5,0.7,2.3c0,0.1,0.2,0.3,0.3,0.3c0.8,0.3,1.7,0.6,2.5,0.8c0.2,0,0.4,0,0.5-0.1c0.5-0.4,1-0.7,1.5-1.1
			c0.4-0.3,1-0.6,1.2-1C701.1,388.7,700.9,388.1,700.9,387.6z M695.7,398.2c0.3,0,0.5,0,0.8,0c0.3,0,0.5-0.1,0.7-0.3
			c0.5-0.7,1-1.3,1.4-2c0.1-0.1,0.1-0.4,0.1-0.5c-0.3-1-0.6-2-1-3c-0.1-0.2-0.2-0.3-0.4-0.4c-0.8-0.3-1.6-0.6-2.5-0.8
			c-0.1,0-0.4,0-0.5,0.1c-0.6,0.4-1.2,0.8-1.7,1.3c-0.1,0.1-0.2,0.3-0.2,0.5c0.1,1.6,0.5,3,1.4,4.3c0.6,0.9,0.6,0.9,1.7,0.9
			C695.6,398.2,695.7,398.2,695.7,398.2z M706.6,398.2c0.5,0,0.8,0,1.1,0c0.2,0,0.4-0.1,0.4-0.2c1.2-1.5,1.9-3.2,1.9-5.1
			c0-0.1-0.1-0.3-0.2-0.4c-0.6-0.5-1.2-0.9-1.8-1.3c-0.1-0.1-0.3-0.1-0.4-0.1c-0.8,0.3-1.7,0.5-2.5,0.8c-0.2,0.1-0.3,0.2-0.4,0.4
			c-0.3,1-0.7,2-1,3c0,0.1,0,0.4,0.1,0.5c0.3,0.5,0.7,0.9,1,1.4C705.3,398.1,705.9,398.5,706.6,398.2z M701.3,396.1
			c-0.5,0-1.1,0-1.6,0c-0.2,0-0.4,0.1-0.5,0.2c-0.5,0.7-1,1.4-1.5,2.1c-0.1,0.1-0.1,0.3-0.1,0.4c0.2,0.5,0.3,1.1,0.5,1.6
			c0.1,0.1,0.2,0.3,0.3,0.3c1.9,0.6,3.7,0.6,5.6,0c0.2-0.1,0.3-0.2,0.4-0.4c0.2-0.5,0.4-1.1,0.5-1.6c0-0.1,0-0.4-0.1-0.5
			c-0.5-0.7-1-1.4-1.5-2.1c-0.1-0.1-0.3-0.2-0.5-0.3C702.3,396.1,701.8,396.1,701.3,396.1z"/>
		<path class="st0" d="M767.2,555.4c-5.8,0-10.5-4.8-10.5-10.6c0.1-5.8,4.8-10.4,10.6-10.4c5.8,0,10.5,4.8,10.4,10.6
			C777.7,550.8,772.9,555.5,767.2,555.4z M767.6,540C767.6,540,767.6,540,767.6,540c0,0.4,0,0.9,0,1.3c0,0.1,0.1,0.3,0.2,0.4
			c0.9,0.6,1.7,1.3,2.6,1.9c0.1,0.1,0.3,0.1,0.5,0.1c0.8-0.3,1.7-0.5,2.5-0.8c0.1,0,0.3-0.2,0.3-0.3c0.3-0.8,0.5-1.5,0.8-2.3
			c0.1-0.2,0-0.4-0.1-0.6c-1-1.3-2.2-2.3-3.7-2.9c-0.4-0.2-0.7-0.2-1.1,0.1c-0.2,0.2-0.5,0.4-0.8,0.6c-0.4,0.3-1,0.6-1.2,1
			C767.4,538.9,767.6,539.5,767.6,540z M766.8,540C766.8,540,766.8,540,766.8,540c0-0.4,0-0.9,0-1.3c0-0.1-0.1-0.3-0.2-0.4
			c-0.7-0.5-1.4-1-2.1-1.5c-0.1-0.1-0.4-0.1-0.5-0.1c-1.6,0.6-3,1.6-4,3.1c-0.1,0.1-0.1,0.4-0.1,0.5c0.2,0.8,0.5,1.5,0.7,2.3
			c0,0.1,0.2,0.3,0.3,0.3c0.8,0.3,1.7,0.6,2.5,0.8c0.2,0,0.4,0,0.5-0.1c0.5-0.4,1-0.7,1.5-1.1c0.4-0.3,1-0.6,1.2-1
			C767,541.1,766.8,540.5,766.8,540z M761.7,550.6c0.3,0,0.5,0,0.8,0c0.3,0,0.5-0.1,0.7-0.3c0.5-0.7,1-1.3,1.4-2
			c0.1-0.1,0.1-0.4,0.1-0.5c-0.3-1-0.6-2-1-3c-0.1-0.2-0.2-0.3-0.4-0.4c-0.8-0.3-1.6-0.6-2.5-0.8c-0.1,0-0.4,0-0.5,0.1
			c-0.6,0.4-1.2,0.8-1.7,1.3c-0.1,0.1-0.2,0.3-0.2,0.5c0.1,1.6,0.5,3,1.4,4.3c0.6,0.9,0.6,0.9,1.7,0.9
			C761.6,550.6,761.6,550.6,761.7,550.6z M772.6,550.6c0.5,0,0.8,0,1.1,0c0.2,0,0.4-0.1,0.4-0.2c1.2-1.5,1.9-3.2,1.9-5.1
			c0-0.1-0.1-0.3-0.2-0.4c-0.6-0.5-1.2-0.9-1.8-1.3c-0.1-0.1-0.3-0.1-0.4-0.1c-0.8,0.3-1.7,0.5-2.5,0.8c-0.2,0.1-0.3,0.2-0.4,0.4
			c-0.3,1-0.7,2-1,3c0,0.1,0,0.4,0.1,0.5c0.3,0.5,0.7,0.9,1,1.4C771.3,550.5,771.8,550.9,772.6,550.6z M767.2,548.5
			c-0.5,0-1.1,0-1.6,0c-0.2,0-0.4,0.1-0.5,0.2c-0.5,0.7-1,1.4-1.5,2.1c-0.1,0.1-0.1,0.3-0.1,0.4c0.2,0.5,0.3,1.1,0.5,1.6
			c0.1,0.1,0.2,0.3,0.3,0.3c1.9,0.6,3.7,0.6,5.6,0c0.2-0.1,0.3-0.2,0.4-0.4c0.2-0.5,0.4-1.1,0.5-1.6c0-0.1,0-0.4-0.1-0.5
			c-0.5-0.7-1-1.4-1.5-2.1c-0.1-0.1-0.3-0.2-0.5-0.3C768.3,548.5,767.7,548.5,767.2,548.5z"/>
		<path class="st0" d="M526.4,555.4c-5.8,0-10.5-4.8-10.5-10.6c0.1-5.8,4.8-10.4,10.6-10.4c5.8,0,10.5,4.8,10.4,10.6
			C536.9,550.8,532.2,555.5,526.4,555.4z M526.8,540C526.8,540,526.8,540,526.8,540c0,0.4,0,0.9,0,1.3c0,0.1,0.1,0.3,0.2,0.4
			c0.9,0.6,1.7,1.3,2.6,1.9c0.1,0.1,0.3,0.1,0.5,0.1c0.8-0.3,1.7-0.5,2.5-0.8c0.1,0,0.3-0.2,0.3-0.3c0.3-0.8,0.5-1.5,0.8-2.3
			c0.1-0.2,0-0.4-0.1-0.6c-1-1.3-2.2-2.3-3.7-2.9c-0.4-0.2-0.7-0.2-1.1,0.1c-0.2,0.2-0.5,0.4-0.8,0.6c-0.4,0.3-1,0.6-1.2,1
			C526.7,538.9,526.8,539.5,526.8,540z M526.1,540C526.1,540,526.1,540,526.1,540c0-0.4,0-0.9,0-1.3c0-0.1-0.1-0.3-0.2-0.4
			c-0.7-0.5-1.4-1-2.1-1.5c-0.1-0.1-0.4-0.1-0.5-0.1c-1.6,0.6-3,1.6-4,3.1c-0.1,0.1-0.1,0.4-0.1,0.5c0.2,0.8,0.5,1.5,0.7,2.3
			c0,0.1,0.2,0.3,0.3,0.3c0.8,0.3,1.7,0.6,2.5,0.8c0.2,0,0.4,0,0.5-0.1c0.5-0.4,1-0.7,1.5-1.1c0.4-0.3,1-0.6,1.2-1
			C526.2,541.1,526.1,540.5,526.1,540z M520.9,550.6c0.3,0,0.5,0,0.8,0c0.3,0,0.5-0.1,0.7-0.3c0.5-0.7,1-1.3,1.4-2
			c0.1-0.1,0.1-0.4,0.1-0.5c-0.3-1-0.6-2-1-3c-0.1-0.2-0.2-0.3-0.4-0.4c-0.8-0.3-1.6-0.6-2.5-0.8c-0.1,0-0.4,0-0.5,0.1
			c-0.6,0.4-1.2,0.8-1.7,1.3c-0.1,0.1-0.2,0.3-0.2,0.5c0.1,1.6,0.5,3,1.4,4.3c0.6,0.9,0.6,0.9,1.7,0.9
			C520.8,550.6,520.9,550.6,520.9,550.6z M531.8,550.6c0.5,0,0.8,0,1.1,0c0.2,0,0.4-0.1,0.4-0.2c1.2-1.5,1.9-3.2,1.9-5.1
			c0-0.1-0.1-0.3-0.2-0.4c-0.6-0.5-1.2-0.9-1.8-1.3c-0.1-0.1-0.3-0.1-0.4-0.1c-0.8,0.3-1.7,0.5-2.5,0.8c-0.2,0.1-0.3,0.2-0.4,0.4
			c-0.3,1-0.7,2-1,3c0,0.1,0,0.4,0.1,0.5c0.3,0.5,0.7,0.9,1,1.4C530.5,550.5,531.1,550.9,531.8,550.6z M526.5,548.5
			c-0.5,0-1.1,0-1.6,0c-0.2,0-0.4,0.1-0.5,0.2c-0.5,0.7-1,1.4-1.5,2.1c-0.1,0.1-0.1,0.3-0.1,0.4c0.2,0.5,0.3,1.1,0.5,1.6
			c0.1,0.1,0.2,0.3,0.3,0.3c1.9,0.6,3.7,0.6,5.6,0c0.2-0.1,0.3-0.2,0.4-0.4c0.2-0.5,0.4-1.1,0.5-1.6c0-0.1,0-0.4-0.1-0.5
			c-0.5-0.7-1-1.4-1.5-2.1c-0.1-0.1-0.3-0.2-0.5-0.3C527.5,548.5,527,548.5,526.5,548.5z"/>
		<path class="st0" d="M493.6,555.4c-5.8,0-10.5-4.8-10.5-10.6c0.1-5.8,4.8-10.4,10.6-10.4c5.8,0,10.5,4.8,10.4,10.6
			C504.1,550.8,499.4,555.5,493.6,555.4z M494.1,540C494.1,540,494,540,494.1,540c0,0.4,0,0.9,0,1.3c0,0.1,0.1,0.3,0.2,0.4
			c0.9,0.6,1.7,1.3,2.6,1.9c0.1,0.1,0.3,0.1,0.5,0.1c0.8-0.3,1.7-0.5,2.5-0.8c0.1,0,0.3-0.2,0.3-0.3c0.3-0.8,0.5-1.5,0.8-2.3
			c0.1-0.2,0-0.4-0.1-0.6c-1-1.3-2.2-2.3-3.7-2.9c-0.4-0.2-0.7-0.2-1.1,0.1c-0.2,0.2-0.5,0.4-0.8,0.6c-0.4,0.3-1,0.6-1.2,1
			C493.9,538.9,494.1,539.5,494.1,540z M493.3,540C493.3,540,493.3,540,493.3,540c0-0.4,0-0.9,0-1.3c0-0.1-0.1-0.3-0.2-0.4
			c-0.7-0.5-1.4-1-2.1-1.5c-0.1-0.1-0.4-0.1-0.5-0.1c-1.6,0.6-3,1.6-4,3.1c-0.1,0.1-0.1,0.4-0.1,0.5c0.2,0.8,0.5,1.5,0.7,2.3
			c0,0.1,0.2,0.3,0.3,0.3c0.8,0.3,1.7,0.6,2.5,0.8c0.2,0,0.4,0,0.5-0.1c0.5-0.4,1-0.7,1.5-1.1c0.4-0.3,1-0.6,1.2-1
			C493.5,541.1,493.3,540.5,493.3,540z M488.1,550.6c0.3,0,0.5,0,0.8,0c0.3,0,0.5-0.1,0.7-0.3c0.5-0.7,1-1.3,1.4-2
			c0.1-0.1,0.1-0.4,0.1-0.5c-0.3-1-0.6-2-1-3c-0.1-0.2-0.2-0.3-0.4-0.4c-0.8-0.3-1.6-0.6-2.5-0.8c-0.1,0-0.4,0-0.5,0.1
			c-0.6,0.4-1.2,0.8-1.7,1.3c-0.1,0.1-0.2,0.3-0.2,0.5c0.1,1.6,0.5,3,1.4,4.3c0.6,0.9,0.6,0.9,1.7,0.9
			C488,550.6,488.1,550.6,488.1,550.6z M499.1,550.6c0.5,0,0.8,0,1.1,0c0.2,0,0.4-0.1,0.4-0.2c1.2-1.5,1.9-3.2,1.9-5.1
			c0-0.1-0.1-0.3-0.2-0.4c-0.6-0.5-1.2-0.9-1.8-1.3c-0.1-0.1-0.3-0.1-0.4-0.1c-0.8,0.3-1.7,0.5-2.5,0.8c-0.2,0.1-0.3,0.2-0.4,0.4
			c-0.3,1-0.7,2-1,3c0,0.1,0,0.4,0.1,0.5c0.3,0.5,0.7,0.9,1,1.4C497.7,550.5,498.3,550.9,499.1,550.6z M493.7,548.5
			c-0.5,0-1.1,0-1.6,0c-0.2,0-0.4,0.1-0.5,0.2c-0.5,0.7-1,1.4-1.5,2.1c-0.1,0.1-0.1,0.3-0.1,0.4c0.2,0.5,0.3,1.1,0.5,1.6
			c0.1,0.1,0.2,0.3,0.3,0.3c1.9,0.6,3.7,0.6,5.6,0c0.2-0.1,0.3-0.2,0.4-0.4c0.2-0.5,0.4-1.1,0.5-1.6c0-0.1,0-0.4-0.1-0.5
			c-0.5-0.7-1-1.4-1.5-2.1c-0.1-0.1-0.3-0.2-0.5-0.3C494.7,548.5,494.2,548.5,493.7,548.5z"/>
		<path class="st0" d="M650.7,376.6c-5.8,0-10.5-4.8-10.5-10.6c0.1-5.8,4.8-10.4,10.6-10.4c5.8,0,10.5,4.8,10.4,10.6
			C661.2,371.9,656.5,376.6,650.7,376.6z M651.2,361.2C651.2,361.2,651.2,361.2,651.2,361.2c0,0.4,0,0.9,0,1.3
			c0,0.1,0.1,0.3,0.2,0.4c0.9,0.6,1.7,1.3,2.6,1.9c0.1,0.1,0.3,0.1,0.5,0.1c0.8-0.3,1.7-0.5,2.5-0.8c0.1,0,0.3-0.2,0.3-0.3
			c0.3-0.8,0.5-1.5,0.8-2.3c0.1-0.2,0-0.4-0.1-0.6c-1-1.3-2.2-2.3-3.7-2.9c-0.4-0.2-0.7-0.2-1.1,0.1c-0.2,0.2-0.5,0.4-0.8,0.6
			c-0.4,0.3-1,0.6-1.2,1C651,360.1,651.2,360.7,651.2,361.2z M650.4,361.2C650.4,361.2,650.4,361.2,650.4,361.2c0-0.4,0-0.9,0-1.3
			c0-0.1-0.1-0.3-0.2-0.4c-0.7-0.5-1.4-1-2.1-1.5c-0.1-0.1-0.4-0.1-0.5-0.1c-1.6,0.6-3,1.6-4,3.1c-0.1,0.1-0.1,0.4-0.1,0.5
			c0.2,0.8,0.5,1.5,0.7,2.3c0,0.1,0.2,0.3,0.3,0.3c0.8,0.3,1.7,0.6,2.5,0.8c0.2,0,0.4,0,0.5-0.1c0.5-0.4,1-0.7,1.5-1.1
			c0.4-0.3,1-0.6,1.2-1C650.6,362.3,650.4,361.7,650.4,361.2z M645.2,371.8c0.3,0,0.5,0,0.8,0c0.3,0,0.5-0.1,0.7-0.3
			c0.5-0.7,1-1.3,1.4-2c0.1-0.1,0.1-0.4,0.1-0.5c-0.3-1-0.6-2-1-3c-0.1-0.2-0.2-0.3-0.4-0.4c-0.8-0.3-1.6-0.6-2.5-0.8
			c-0.1,0-0.4,0-0.5,0.1c-0.6,0.4-1.2,0.8-1.7,1.3c-0.1,0.1-0.2,0.3-0.2,0.5c0.1,1.6,0.5,3,1.4,4.3c0.6,0.9,0.6,0.9,1.7,0.9
			C645.1,371.8,645.2,371.8,645.2,371.8z M656.2,371.8c0.5,0,0.8,0,1.1,0c0.2,0,0.4-0.1,0.4-0.2c1.2-1.5,1.9-3.2,1.9-5.1
			c0-0.1-0.1-0.3-0.2-0.4c-0.6-0.5-1.2-0.9-1.8-1.3c-0.1-0.1-0.3-0.1-0.4-0.1c-0.8,0.3-1.7,0.5-2.5,0.8c-0.2,0.1-0.3,0.2-0.4,0.4
			c-0.3,1-0.7,2-1,3c0,0.1,0,0.4,0.1,0.5c0.3,0.5,0.7,0.9,1,1.4C654.9,371.6,655.4,372.1,656.2,371.8z M650.8,369.7
			c-0.5,0-1.1,0-1.6,0c-0.2,0-0.4,0.1-0.5,0.2c-0.5,0.7-1,1.4-1.5,2.1c-0.1,0.1-0.1,0.3-0.1,0.4c0.2,0.5,0.3,1.1,0.5,1.6
			c0.1,0.1,0.2,0.3,0.3,0.3c1.9,0.6,3.7,0.6,5.6,0c0.2-0.1,0.3-0.2,0.4-0.4c0.2-0.5,0.4-1.1,0.5-1.6c0-0.1,0-0.4-0.1-0.5
			c-0.5-0.7-1-1.4-1.5-2.1c-0.1-0.1-0.3-0.2-0.5-0.3C651.8,369.6,651.3,369.7,650.8,369.7z"/>
		<path class="st0" d="M804.3,436.1v73.4c0.1,4-0.9,7.6-3,10.7v-0.1c-2.1,2.9-5.7,4.5-10.7,4.9h-22.3v0.1H622.6V525h-24.5v-80.7
			h-72.2c-5.9,1.5-8.8,5.1-8.8,10.9c0,5.9,3,9.3,8.9,10.3h28.9c7,0.9,12.9,2.7,17.8,5.5s8.1,6.7,9.8,11.4v-0.1
			c0.9,2.6,1.5,5.1,2,7.5c0.5,2.4,0.7,4.7,0.7,6.9s-0.2,4.5-0.7,6.8c-0.5,2.3-1.1,4.4-2.1,6.4c-1.8,3.9-4.7,7.2-8.9,9.7
			c-4.2,2.5-9.4,4.3-15.6,5.4h-98.7c-6.4-2.5-11.9-6-16.6-10.5c-4.7-4.4-8.4-9.6-11.2-15.4c-1.6-3.6-2.9-7.5-3.8-11.6
			c-0.9-4.1-1.3-8.3-1.3-12.4c0-2.8,0.2-5.8,0.5-8.7c0.3-3,0.9-6,1.7-9c3.7-15.2,13.5-25.8,29.4-31.6c0.1,0,0.2,0,0.2,0h6.1
			c5.4,0,10,4.1,10.7,9.3c0,0.4,0.1,0.7,0.1,1.1c0,4.5-3.9,8.2-8.5,8.2c-0.1,0-0.2,0-0.2,0c-10.6,4.1-16.9,10.7-19,19.7
			c-0.6,2.9-0.9,5.9-0.9,8.9c0,5.7,1.3,11.3,3.8,16.9c3.8,8.5,9.8,14.3,18.1,17.4h88.9c4.4-0.8,6.7-4.4,6.8-10.9
			c0.1-6.5-4-10.4-12.1-11.7h-31.1c-12.4-2.1-20.1-8.1-23-18c-1.2-4-1.9-7.9-1.9-11.7c0-2.9,0.4-5.6,1.1-8.3
			c0.7-2.7,1.8-5.2,3.1-7.7c2.3-3.8,5.5-6.8,9.5-9.1c4-2.3,8.7-3.7,14-4.3h78c12.1,0,18.1,5.7,18.1,17.2v64.4h8.9v0.1h11.2v-69.7
			c0-6.6,5.4-12,12-12c3.3,0,6.3,1.3,8.5,3.5c2.2,2.2,3.5,5.2,3.5,8.5v69.7h25.5v-69.7c0-3.3,1.3-6.3,3.5-8.5
			c2.2-2.2,5.2-3.5,8.5-3.5c6.6,0,12,5.4,12,12v69.7h19l0.3-154.2c0-6.6,5.4-12,12-12c6.6,0,12,5.4,12,12l-0.3,154.1h24.3v-71.3
			c0-3.2,1.3-6.2,3.5-8.3c2.1-2.1,5.1-3.4,8.3-3.4C799.1,424.3,804.3,429.5,804.3,436.1z"/>
	</g>
	<path class="st0" d="M163.4,156.9c39.1-4,76.7,8.4,115.1,13.8c44.4,6.2,88.4,14.6,132,25.2c87.1,21.2,172,51.1,253.1,89.1
		C777.4,338.5,883,413.7,978.2,495.4c29.4,25.2,63.7,47.3,103.2,50.8c46.1,4.1,91-15.1,131.5-35c39.9-19.6,81.5-38.7,118.1-64.1
		c8.9-6.2,17.4-12.7,25.6-19.8c-16.7,14.6-47,6.3-66.1,2.6c-26.5-5.1-53.2-8.6-79.5-14.4c-62.1-13.7-121.5-37-178.8-64.2
		c-168.8-79.9-342.7-153.1-528.3-180.5c-56.4-8.3-113-16-169.9-19.6C281.9,148,212.8,140.2,163.4,156.9z"/>
</g>
</svg>
